<svg width="32" height="32" viewBox="0 0 32 32" fill="none" xmlns="http://www.w3.org/2000/svg">
<circle cx="16" cy="16" r="16" fill="#FEFEFE"/>
<rect width="22" height="22" transform="translate(5 5)" fill="#FEFEFE"/>
<path d="M6.8335 6.83331H8.4285C9.4185 6.83331 10.1977 7.68581 10.1152 8.66665L9.35433 17.7966C9.226 19.2908 10.4085 20.5741 11.9118 20.5741H21.6743C22.9943 20.5741 24.1493 19.4925 24.2502 18.1817L24.7452 11.3067C24.8552 9.78498 23.7002 8.54748 22.1693 8.54748H10.3352" stroke="#1A1A1A" stroke-width="1.5" stroke-miterlimit="10" stroke-linecap="round" stroke-linejoin="round"/>
<path d="M19.8958 25.1667C20.5287 25.1667 21.0417 24.6537 21.0417 24.0208C21.0417 23.388 20.5287 22.875 19.8958 22.875C19.263 22.875 18.75 23.388 18.75 24.0208C18.75 24.6537 19.263 25.1667 19.8958 25.1667Z" stroke="#1A1A1A" stroke-width="1.5" stroke-miterlimit="10" stroke-linecap="round" stroke-linejoin="round"/>
<path d="M12.5623 25.1667C13.1952 25.1667 13.7082 24.6537 13.7082 24.0208C13.7082 23.388 13.1952 22.875 12.5623 22.875C11.9295 22.875 11.4165 23.388 11.4165 24.0208C11.4165 24.6537 11.9295 25.1667 12.5623 25.1667Z" stroke="#1A1A1A" stroke-width="1.5" stroke-miterlimit="10" stroke-linecap="round" stroke-linejoin="round"/>
<path d="M13.25 12.3333H24.25" stroke="#1A1A1A" stroke-width="1.5" stroke-miterlimit="10" stroke-linecap="round" stroke-linejoin="round"/>
</svg>
