<svg width="32" height="32" viewBox="0 0 32 32" fill="none" xmlns="http://www.w3.org/2000/svg">
<rect width="32" height="32" rx="16" fill="#FEFEFE"/>
<path d="M16 29.3333C23.3638 29.3333 29.3333 23.3638 29.3333 16C29.3333 8.63619 23.3638 2.66666 16 2.66666C8.63616 2.66666 2.66663 8.63619 2.66663 16C2.66663 23.3638 8.63616 29.3333 16 29.3333Z" stroke="#10413F" stroke-width="1.5" stroke-linecap="round" stroke-linejoin="round"/>
<path d="M16.44 23.2667C16.2 23.3467 15.7867 23.3467 15.5467 23.2667C13.4667 22.56 8.80005 19.5867 8.80005 14.5467C8.80005 12.32 10.5867 10.52 12.8 10.52C14.1067 10.52 15.2667 11.1467 16 12.1333C16.72 11.16 17.8934 10.52 19.2 10.52C21.4134 10.52 23.2 12.32 23.2 14.5467C23.2 19.5867 18.5334 22.56 16.44 23.2667Z" stroke="#10413F" stroke-width="1.5" stroke-linecap="round" stroke-linejoin="round"/>
</svg>
