<svg width="32" height="32" viewBox="0 0 32 32" fill="none" xmlns="http://www.w3.org/2000/svg">
<rect width="32" height="32" rx="16" fill="#FEFEFE"/>
<path d="M16 2.66666C8.63996 2.66666 2.66663 8.63999 2.66663 16C2.66663 23.36 8.63996 29.3333 16 29.3333C23.36 29.3333 29.3333 23.36 29.3333 16C29.3333 8.63999 23.36 2.66666 16 2.66666ZM16.44 22.6667C16.2 22.7467 15.7866 22.7467 15.5466 22.6667C13.4666 21.96 8.79996 18.9867 8.79996 13.9467C8.79996 11.72 10.5866 9.91999 12.8 9.91999C14.1066 9.91999 15.2666 10.5467 16 11.5333C16.72 10.56 17.8933 9.91999 19.2 9.91999C21.4133 9.91999 23.2 11.72 23.2 13.9467C23.2 18.9867 18.5333 21.96 16.44 22.6667Z" fill="#10413F"/>
</svg>
